<?xml version="1.0" standalone="no"?>
<!DOCTYPE svg PUBLIC "-//W3C//DTD SVG 20010904//EN"
 "http://www.w3.org/TR/2001/REC-SVG-20010904/DTD/svg10.dtd">
<svg version="1.0" xmlns="http://www.w3.org/2000/svg"
 width="500.000000pt" height="500.000000pt" viewBox="0 0 500.000000 500.000000"
 preserveAspectRatio="xMidYMid meet">

<g transform="translate(0.000000,500.000000) scale(0.100000,-0.100000)"
fill="#000000" stroke="none">
<path d="M0 2500 l0 -2500 2500 0 2500 0 0 2500 0 2500 -2500 0 -2500 0 0
-2500z m2381 885 c24 -9 61 -27 82 -41 l39 -25 36 25 c48 33 115 56 163 56 42
0 75 -26 86 -68 11 -44 -4 -123 -35 -182 -29 -58 -30 -60 -9 -55 12 3 45 1 72
-4 49 -8 48 -9 -35 -11 l-85 -2 87 -13 c118 -19 162 -44 187 -105 l10 -25 0
29 c1 22 -10 39 -41 70 -41 38 -41 39 -10 21 35 -21 62 -61 62 -92 0 -47 -99
-142 -163 -158 -25 -7 -26 -10 -20 -51 9 -66 -15 -163 -48 -196 -60 -61 -171
-10 -236 110 -10 17 -20 32 -23 32 -3 0 -14 -16 -24 -35 -22 -41 -109 -125
-128 -125 -7 0 -4 6 7 12 58 32 135 132 135 177 0 20 -7 13 -36 -35 -43 -72
-54 -84 -96 -108 -26 -15 -22 -9 19 28 66 60 118 159 108 206 l-7 31 -25 -48
c-63 -119 -132 -184 -197 -186 -46 -1 -36 -17 11 -17 67 0 138 64 188 171 14
30 25 46 25 37 0 -21 -34 -81 -77 -135 -39 -50 -90 -83 -131 -86 -41 -3 -29
-17 16 -18 l37 -2 -40 -7 c-42 -7 -39 -9 30 -23 11 -3 6 -5 -13 -6 -52 -2 -86
39 -102 122 -7 37 -10 85 -6 107 6 36 4 39 -22 44 -55 13 -162 117 -162 158 0
34 28 73 68 96 22 12 46 22 53 22 8 0 -4 -9 -27 -19 -49 -22 -84 -65 -83 -100
1 -21 2 -22 6 -6 12 49 98 105 158 104 25 -1 23 -2 -12 -9 -83 -17 -133 -59
-133 -110 1 -23 2 -23 15 8 23 52 106 86 217 86 47 1 84 4 82 7 -2 4 -14 7
-26 7 -13 1 -43 5 -68 11 l-45 10 43 -3 c23 -2 40 0 36 5 -3 5 -38 9 -77 10
-71 1 -71 1 -27 10 25 5 55 8 67 6 20 -4 20 -2 -10 56 -22 42 -32 77 -35 121
-4 56 -1 65 23 94 31 37 74 42 146 17z m157 -907 c32 -32 -4 -87 -48 -73 -25
8 -37 50 -20 70 15 18 51 20 68 3z m882 -253 l0 -265 -30 0 c-26 0 -30 4 -30
27 l0 26 -22 -20 c-36 -33 -63 -43 -113 -43 -115 0 -199 103 -181 223 21 139
178 208 288 127 l28 -21 0 106 0 105 30 0 30 0 0 -265z m-1920 83 c107 -58
120 -233 25 -317 -56 -49 -158 -55 -217 -11 l-28 21 0 -101 0 -100 -35 0 -35
0 0 265 0 265 30 0 c22 0 30 -5 30 -18 0 -28 11 -34 31 -16 49 45 131 50 199
12z m415 3 c53 -30 65 -69 65 -218 l0 -133 -30 0 c-26 0 -30 4 -30 27 l0 27
-30 -29 c-22 -21 -42 -29 -79 -33 -92 -8 -151 36 -151 112 0 81 53 116 174
116 68 0 76 2 76 19 0 33 -11 51 -42 67 -42 22 -91 11 -121 -27 -19 -25 -30
-30 -55 -27 l-32 3 17 34 c42 82 151 111 238 62z m398 2 c50 -25 67 -80 67
-225 l0 -128 -29 0 c-20 0 -30 6 -34 20 -5 20 -6 20 -44 -6 -33 -22 -46 -25
-96 -22 -46 3 -63 10 -87 33 -39 37 -46 75 -23 123 26 53 70 72 166 72 70 0
77 2 77 19 0 11 -11 32 -24 48 -19 22 -32 28 -66 28 -35 0 -47 -6 -71 -33 -21
-23 -37 -32 -60 -32 -24 0 -30 3 -25 16 3 9 6 19 6 24 0 4 14 22 32 39 50 49
141 60 211 24z m577 2 c57 -29 90 -87 90 -156 l0 -39 -145 0 c-80 0 -145 -2
-145 -5 0 -3 6 -21 14 -39 19 -45 52 -66 104 -66 35 0 49 6 74 30 19 20 40 30
59 30 35 0 36 -7 7 -50 -67 -97 -233 -92 -291 9 -57 97 -29 237 57 283 52 28
123 29 176 3z m842 -2 c26 -12 58 -59 58 -83 0 -5 -15 -10 -34 -10 -25 0 -35
5 -39 20 -11 42 -106 50 -127 10 -18 -33 0 -49 84 -74 98 -30 126 -55 126
-112 0 -48 -22 -82 -66 -100 -73 -30 -159 -11 -207 45 -59 70 -6 103 57 36 27
-28 41 -35 70 -35 53 0 76 15 76 50 0 34 -16 45 -87 60 -100 22 -141 66 -122
134 20 74 125 103 211 59z m-1192 -168 l0 -185 -35 0 -35 0 0 185 0 185 35 0
35 0 0 -185z m815 -394 c-3 -10 3 -42 15 -70 11 -28 15 -51 10 -51 -6 0 -13 7
-16 15 -4 8 -14 15 -24 15 -10 0 -20 -7 -24 -15 -3 -8 -10 -15 -15 -15 -11 0
22 105 40 126 16 19 21 17 14 -5z m-2146 -25 c9 -10 9 -20 2 -33 -6 -12 -6
-25 0 -34 11 -18 11 -29 0 -29 -5 0 -13 9 -16 20 -3 11 -13 20 -21 20 -8 0
-14 -9 -14 -20 0 -11 -4 -20 -10 -20 -5 0 -10 25 -10 55 0 54 1 55 29 55 16 0
34 -6 40 -14z m105 -2 c20 -19 21 -68 2 -83 -25 -21 -69 -9 -80 21 -19 53 40
100 78 62z m103 -36 c21 -55 21 -76 -1 -45 -16 21 -42 22 -50 2 -3 -8 -10 -15
-15 -15 -9 0 -3 23 24 98 9 24 23 11 42 -40z m105 35 c20 -18 24 -63 6 -81 -7
-7 -27 -12 -45 -12 l-33 0 0 55 c0 53 1 55 27 55 14 0 35 -7 45 -17z m78 -24
l14 -42 18 42 c24 57 38 52 38 -14 0 -55 -19 -80 -21 -27 l-1 27 -11 -27 c-14
-37 -32 -35 -45 5 l-10 32 -1 -32 c-2 -56 -21 -36 -21 22 0 68 20 75 40 14z
m161 -17 c10 -29 14 -52 9 -52 -4 0 -10 7 -14 15 -7 20 -42 19 -50 -1 -4 -9
-9 -14 -12 -11 -10 9 27 108 39 104 6 -2 18 -27 28 -55z m99 43 c19 -23 8 -50
-23 -53 -19 -2 -27 -9 -27 -23 0 -10 -4 -19 -10 -19 -5 0 -10 25 -10 55 0 54
1 55 29 55 16 0 34 -7 41 -15z m87 -1 c2 -7 -6 -10 -22 -7 -34 7 -31 -8 6 -29
38 -22 36 -52 -5 -56 -16 -2 -33 1 -39 7 -16 16 0 26 17 12 15 -13 36 -7 36 9
0 5 -11 12 -24 16 -29 7 -41 31 -25 51 14 16 51 14 56 -3z m122 2 c9 -11 8
-17 -3 -29 -17 -17 -9 -32 9 -17 10 8 14 3 17 -20 4 -29 3 -30 -34 -30 -41 0
-56 16 -42 48 4 9 6 21 5 26 -7 32 27 48 48 22z m151 4 c0 -5 -11 -10 -25 -10
-32 0 -34 -29 -2 -31 l22 -2 -22 -4 c-33 -6 -31 -43 1 -43 14 0 28 5 32 11 4
8 9 8 17 0 21 -21 27 -11 27 39 0 28 5 50 11 50 6 0 9 -21 7 -52 l-3 -53 -67
-3 -68 -2 0 55 0 55 35 0 c19 0 35 -4 35 -10z m170 0 c0 -5 -11 -10 -25 -10
-32 0 -34 -29 -2 -31 l22 -2 -22 -4 c-34 -6 -30 -41 5 -46 22 -3 20 -4 -10 -6
l-38 -1 0 55 0 55 35 0 c19 0 35 -4 35 -10z m76 2 c6 -4 11 -28 11 -54 0 -49
-11 -64 -20 -28 -3 11 -12 20 -21 20 -9 0 -16 -8 -16 -20 0 -11 -4 -20 -10
-20 -11 0 -14 93 -3 103 9 9 45 9 59 -1z m113 -6 c10 -12 6 -14 -21 -13 -30 2
-33 -1 -36 -29 -3 -35 20 -53 45 -33 15 13 28 6 18 -10 -9 -15 -58 -14 -73 1
-17 17 -15 64 4 82 19 20 48 21 63 2z m41 -41 c0 -30 -4 -55 -10 -55 -11 0
-14 93 -3 103 12 12 13 8 13 -48z m94 49 c28 -11 17 -24 -14 -18 -25 6 -30 3
-36 -21 -9 -38 15 -62 46 -45 18 10 21 9 18 -2 -3 -7 -19 -13 -39 -13 -44 0
-62 39 -35 79 17 26 31 31 60 20z m56 -49 c0 -30 -4 -55 -10 -55 -5 0 -10 25
-10 55 0 30 5 55 10 55 6 0 10 -25 10 -55z m104 39 c33 -33 12 -94 -32 -94
-35 0 -52 17 -52 51 0 32 23 59 50 59 10 0 26 -7 34 -16z m96 6 c16 -10 8 -13
-27 -10 -33 2 -28 -16 8 -29 24 -8 30 -15 27 -33 -2 -15 -11 -24 -26 -26 -31
-5 -55 5 -47 18 5 8 11 7 20 0 14 -12 35 -6 35 9 0 4 -11 13 -25 19 -23 11
-33 40 -18 55 9 10 36 8 53 -3z m140 -10 c24 -24 25 -38 4 -68 -11 -15 -25
-22 -50 -22 l-34 0 0 48 c0 27 3 52 7 55 13 14 54 6 73 -13z m60 -41 c0 -27
-4 -49 -10 -49 -5 0 -10 25 -10 56 0 34 4 53 10 49 6 -3 10 -28 10 -56z m62
24 l23 -38 3 38 c5 54 22 35 22 -24 0 -60 -16 -64 -47 -11 l-22 37 -1 -37 c0
-21 -4 -38 -10 -38 -5 0 -10 25 -10 55 0 30 4 55 9 55 5 0 20 -17 33 -37z
m207 -5 l18 -43 13 43 c19 62 40 55 40 -13 0 -30 -4 -55 -10 -55 -5 0 -10 15
-10 33 l-1 32 -14 -32 c-17 -40 -28 -41 -42 -5 l-11 27 -1 -27 c-2 -53 -21
-28 -21 27 0 66 14 71 39 13z m111 -13 c0 -30 -4 -55 -10 -55 -5 0 -10 25 -10
55 0 30 5 55 10 55 6 0 10 -25 10 -55z m94 49 c28 -11 17 -24 -14 -18 -25 6
-30 3 -36 -21 -9 -38 15 -62 46 -45 18 10 21 9 18 -2 -3 -7 -19 -13 -39 -13
-44 0 -62 39 -35 79 17 26 31 31 60 20z m114 -6 c7 -7 12 -26 12 -43 0 -38
-16 -55 -52 -55 -22 0 -29 6 -35 28 -8 31 -6 52 9 70 13 15 50 16 66 0z m99
-4 c2 -7 -6 -10 -22 -7 -32 7 -33 -14 -1 -27 30 -11 38 -23 30 -45 -8 -20 -65
-17 -72 3 -3 11 0 12 17 3 21 -12 41 -7 41 9 0 4 -13 13 -30 19 -31 10 -42 44
-17 55 19 8 50 2 54 -10z"/>
<path d="M2242 3363 c-22 -22 -24 -31 -20 -88 4 -70 52 -177 82 -183 12 -3 10
7 -13 45 -17 26 -33 62 -36 78 -4 19 1 13 14 -18 19 -46 69 -122 76 -115 2 2
-12 34 -31 72 -19 38 -34 80 -33 95 0 19 4 13 13 -20 13 -50 56 -128 80 -149
23 -18 20 -5 -9 38 -49 75 -71 193 -45 243 6 10 7 19 3 20 -4 0 -19 2 -32 3
-16 2 -34 -6 -49 -21z m28 2 c-7 -8 -16 -38 -21 -67 l-8 -53 3 52 c3 46 18 83
33 83 3 0 0 -7 -7 -15z m21 -34 c-9 -28 -17 -44 -19 -36 -3 13 23 85 31 85 2
0 -4 -22 -12 -49z"/>
<path d="M2712 3351 c10 -19 17 -47 17 -61 -1 -20 -2 -21 -6 -5 -12 52 -25 84
-39 89 -12 5 -12 2 -3 -16 17 -31 6 -136 -19 -188 -37 -77 -57 -110 -65 -110
-5 0 4 19 18 43 45 72 58 110 63 177 4 58 2 67 -19 85 -22 20 -22 20 -14 0 27
-65 13 -153 -41 -248 -40 -73 -39 -50 2 27 54 101 59 243 8 211 -12 -8 -17
-27 -19 -70 -1 -38 -11 -83 -27 -122 -14 -35 -22 -63 -17 -63 5 0 9 -6 9 -13
0 -21 36 -47 49 -34 15 15 14 -5 -1 -23 -7 -8 -1 -4 15 9 30 27 34 36 12 27
-21 -8 -20 -5 20 54 19 29 41 73 49 98 8 26 15 37 15 26 1 -12 -14 -52 -33
-90 -19 -38 -33 -70 -31 -72 9 -9 67 86 80 131 19 64 19 104 -1 142 -15 29
-14 29 3 12 31 -31 24 -130 -14 -207 -32 -65 -36 -90 -8 -54 60 78 84 208 47
254 -11 14 -31 25 -44 25 l-24 1 18 -35z m-82 -61 c0 -38 -42 -167 -61 -184
-6 -6 -3 7 6 29 34 79 46 131 42 174 -3 27 -2 38 4 30 5 -8 9 -30 9 -49z"/>
<path d="M2337 3362 c-37 -40 -17 -153 44 -252 18 -28 24 -47 17 -51 -7 -4 -7
-9 1 -13 6 -4 11 -3 11 3 0 5 9 12 19 16 12 4 18 12 14 21 -3 7 -1 14 5 14 5
0 -2 28 -16 63 -16 39 -26 84 -27 122 -2 43 -7 62 -19 70 -50 31 -46 -106 5
-205 41 -79 45 -88 31 -75 -6 6 -25 39 -42 74 -36 72 -50 164 -30 200 15 29 8
36 -13 13z m46 -54 c-2 -24 3 -65 11 -93 8 -27 13 -51 11 -53 -6 -6 -35 99
-35 129 0 25 8 59 15 59 1 0 1 -19 -2 -42z m56 -203 c0 -5 -6 -1 -14 9 -8 11
-15 24 -15 30 0 5 7 1 15 -10 8 -10 14 -23 14 -29z"/>
<path d="M2410 3291 c0 -38 37 -158 52 -167 8 -5 9 -2 5 10 -4 10 -10 30 -12
44 -6 26 -5 25 8 -3 l13 -30 7 34 c9 44 8 61 -3 36 -8 -18 -9 -18 -10 5 0 14
-7 39 -15 55 -15 30 -15 30 -10 -20 3 -36 2 -43 -5 -25 -4 14 -8 40 -9 58 -1
40 -21 43 -21 3z"/>
<path d="M2570 3292 c0 -27 -21 -117 -36 -156 -5 -13 -4 -17 4 -12 15 9 52
129 52 167 0 16 -4 29 -10 29 -5 0 -10 -13 -10 -28z"/>
<path d="M2545 3273 c-4 -18 -10 -31 -14 -29 -3 2 -7 -19 -8 -47 -1 -35 1 -47
7 -37 13 21 33 118 27 133 -3 6 -8 -3 -12 -20z"/>
<path d="M2315 3070 c3 -5 11 -10 16 -10 6 0 7 5 4 10 -3 6 -11 10 -16 10 -6
0 -7 -4 -4 -10z"/>
<path d="M2670 3070 c-13 -8 -12 -10 3 -10 9 0 17 5 17 10 0 12 -1 12 -20 0z"/>
<path d="M2355 3060 c3 -5 11 -10 16 -10 6 0 7 5 4 10 -3 6 -11 10 -16 10 -6
0 -7 -4 -4 -10z"/>
<path d="M2691 3051 c-8 -5 -20 -7 -27 -4 -6 2 -15 -1 -20 -8 -5 -9 -2 -10 9
-6 9 3 19 2 22 -3 4 -6 -2 -11 -12 -11 -10 -1 17 -5 60 -9 97 -9 159 -32 192
-71 27 -33 45 -31 45 5 0 36 -35 73 -86 90 -59 20 -165 30 -183 17z m62 -18
c-13 -2 -33 -2 -45 0 -13 2 -3 4 22 4 25 0 35 -2 23 -4z m135 -30 c35 -17 62
-48 62 -73 -1 -8 -7 -1 -14 16 -8 18 -27 37 -47 46 -19 8 -45 20 -59 26 l-25
12 25 -6 c14 -3 40 -13 58 -21z"/>
<path d="M2370 3036 c0 -2 7 -7 16 -10 8 -3 12 -2 9 4 -6 10 -25 14 -25 6z"/>
<path d="M2193 3020 c-107 -22 -164 -89 -113 -135 19 -17 21 -17 53 12 37 32
87 49 187 63 65 9 64 9 -25 6 -95 -4 -149 -20 -184 -55 -12 -12 -21 -17 -21
-13 0 13 30 37 70 57 23 12 67 20 128 23 100 5 109 22 12 22 -102 0 -202 -38
-220 -83 -6 -14 -9 -17 -9 -6 -2 45 91 89 204 97 52 3 73 8 60 13 -25 10 -88
9 -142 -1z"/>
<path d="M2626 2991 c-5 -8 15 -12 66 -13 l73 -2 -75 -5 -75 -6 66 -8 c94 -11
161 -33 189 -62 24 -25 40 -32 40 -16 0 19 -56 62 -99 75 -25 8 -38 15 -28 15
31 2 88 -27 118 -60 21 -23 29 -27 29 -14 0 25 -52 72 -96 85 -57 17 -200 25
-208 11z"/>
<path d="M2235 2934 c-58 -14 -127 -55 -114 -69 4 -3 23 5 43 19 37 25 113 46
166 46 16 0 32 5 35 10 9 14 -58 11 -130 -6z"/>
<path d="M2634 2941 c4 -6 15 -11 24 -11 14 0 14 -2 3 -9 -10 -6 -4 -11 20
-16 50 -10 131 -36 126 -41 -2 -3 -17 0 -32 6 -15 6 -46 15 -69 20 -37 8 -39
7 -22 -6 11 -8 29 -14 40 -15 21 0 21 -1 1 -8 -12 -5 7 -8 53 -8 39 0 72 4 72
8 0 8 -93 49 -111 49 -7 0 -10 3 -6 6 8 9 77 -15 110 -38 34 -24 48 -16 22 12
-22 24 -92 46 -177 56 -45 5 -59 4 -54 -5z m79 -18 c-7 -2 -19 -2 -25 0 -7 3
-2 5 12 5 14 0 19 -2 13 -5z"/>
<path d="M2255 2911 c-38 -10 -105 -41 -105 -50 0 -4 17 -7 39 -8 44 -2 134
27 131 42 -1 5 7 12 17 16 24 10 -42 9 -82 0z m0 -31 c-32 -11 -61 -18 -63
-16 -5 6 80 34 103 35 11 0 -7 -9 -40 -19z"/>
<path d="M2368 2849 c-7 -4 -16 -5 -20 -3 -4 3 -14 2 -20 -3 -7 -4 -19 -8 -26
-9 -19 -3 -28 -14 -11 -14 7 0 -1 -13 -19 -30 -18 -16 -31 -34 -27 -39 3 -5 1
-12 -5 -16 -25 -15 -7 -24 21 -9 17 8 29 11 25 6 -3 -5 -19 -15 -36 -22 -16
-7 -30 -16 -30 -21 0 -31 100 28 142 85 18 24 39 52 46 62 7 11 5 4 -4 -15
-24 -51 -115 -137 -152 -146 -18 -3 -32 -11 -32 -17 0 -16 51 0 94 30 35 24
126 140 126 161 0 10 -56 10 -72 0z m3 -32 l-24 -22 19 27 c10 14 21 24 23 22
3 -3 -6 -15 -18 -27z m-60 -28 c-60 -54 -71 -49 -13 5 26 25 49 42 52 39 3 -3
-15 -23 -39 -44z m39 -3 c0 -2 -8 -10 -17 -17 -16 -13 -17 -12 -4 4 13 16 21
21 21 13z"/>
<path d="M2431 2814 c-41 -76 -106 -141 -163 -162 -30 -11 -45 -21 -36 -24 50
-19 145 54 197 152 18 33 31 65 29 70 -2 6 -14 -11 -27 -36z"/>
<path d="M2516 2827 c-10 -51 29 -135 92 -201 26 -27 36 -42 22 -32 -33 22
-82 85 -104 135 -18 38 -36 54 -36 31 0 -5 5 -10 10 -10 6 0 10 -10 10 -23 0
-31 53 -109 98 -147 42 -34 93 -47 126 -32 32 14 29 39 -5 40 -36 1 -77 23
-110 59 -39 41 -99 139 -99 160 0 10 9 -1 20 -24 50 -111 126 -183 192 -183
20 0 39 4 42 9 4 5 -3 7 -14 4 -29 -8 -106 34 -139 75 -36 47 -88 134 -93 158
-3 12 -7 5 -12 -19z m222 -264 c-10 -2 -28 -2 -40 0 -13 2 -5 4 17 4 22 1 32
-1 23 -4z"/>
<path d="M2540 2851 c0 -30 67 -135 112 -175 52 -47 89 -62 116 -47 16 10 16
10 -1 11 -55 1 -133 68 -191 164 -20 33 -36 54 -36 47z"/>
<path d="M2560 2852 c0 -5 19 -37 43 -73 44 -65 122 -129 158 -129 32 0 21 14
-26 34 -47 19 -116 88 -141 141 -13 27 -13 28 0 10 65 -87 95 -117 133 -136
24 -12 47 -19 50 -15 8 7 9 6 -49 39 -44 25 -126 112 -116 122 2 3 18 -13 34
-35 30 -42 113 -105 123 -94 3 3 -5 14 -19 23 -40 26 -100 82 -100 94 0 5 22
-11 50 -37 27 -25 52 -46 55 -46 10 0 -8 24 -33 44 -18 15 -21 21 -10 27 10 7
10 9 1 9 -23 0 -28 2 -40 12 -7 5 -17 7 -22 4 -5 -4 -12 -2 -15 2 -7 11 -76
14 -76 4z"/>
<path d="M3191 2267 c-124 -43 -93 -257 37 -257 78 0 122 50 122 137 0 41 -5
58 -25 82 -23 27 -38 35 -85 46 -8 2 -30 -2 -49 -8z"/>
<path d="M1360 2267 c-127 -43 -94 -257 40 -257 72 0 120 53 120 132 0 95 -75
153 -160 125z"/>
<path d="M1763 2115 c-27 -11 -33 -20 -33 -44 0 -16 7 -37 16 -45 18 -19 92
-21 114 -3 27 20 50 60 50 84 0 21 -4 23 -57 23 -32 -1 -73 -7 -90 -15z"/>
<path d="M2162 2120 c-12 -5 -26 -20 -31 -32 -17 -45 12 -78 69 -78 42 0 75
20 95 60 27 53 22 60 -47 59 -35 0 -73 -4 -86 -9z"/>
<path d="M2750 2261 c-19 -10 -40 -32 -47 -50 l-13 -31 110 0 c93 0 110 2 110
16 0 29 -21 56 -55 70 -45 18 -63 18 -105 -5z"/>
<path d="M3330 1685 c0 -8 5 -15 10 -15 6 0 10 7 10 15 0 8 -4 15 -10 15 -5 0
-10 -7 -10 -15z"/>
<path d="M1160 1705 c0 -10 7 -15 18 -13 21 4 19 22 -2 26 -10 2 -16 -3 -16
-13z"/>
<path d="M1254 1695 c-8 -32 14 -59 40 -49 27 10 18 68 -11 72 -17 3 -24 -3
-29 -23z"/>
<path d="M1380 1685 c0 -8 5 -15 10 -15 6 0 10 7 10 15 0 8 -4 15 -10 15 -5 0
-10 -7 -10 -15z"/>
<path d="M1470 1681 c0 -26 5 -41 13 -41 25 0 39 18 35 46 -2 21 -9 30 -25 32
-21 3 -23 -1 -23 -37z"/>
<path d="M1720 1685 c0 -8 5 -15 10 -15 6 0 10 7 10 15 0 8 -4 15 -10 15 -5 0
-10 -7 -10 -15z"/>
<path d="M1810 1700 c0 -22 1 -23 24 -14 23 9 20 34 -4 34 -13 0 -20 -7 -20
-20z"/>
<path d="M2040 1709 c0 -5 5 -7 10 -4 6 3 10 8 10 11 0 2 -4 4 -10 4 -5 0 -10
-5 -10 -11z"/>
<path d="M2030 1668 c0 -9 5 -20 11 -23 17 -11 20 0 4 21 -13 17 -14 17 -15 2z"/>
<path d="M2420 1705 c0 -8 9 -15 20 -15 11 0 20 7 20 15 0 8 -9 15 -20 15 -11
0 -20 -7 -20 -15z"/>
<path d="M2817 1714 c-12 -13 -8 -51 8 -64 21 -18 47 5 43 39 -3 26 -35 41
-51 25z"/>
<path d="M3050 1680 c0 -44 16 -52 44 -24 28 27 12 64 -26 64 -14 0 -18 -8
-18 -40z"/>
<path d="M3697 1698 c-7 -26 9 -58 29 -58 19 0 34 40 22 63 -12 24 -44 22 -51
-5z"/>
</g>
</svg>
